<?xml version="1.0" standalone="no"?>
<!DOCTYPE svg PUBLIC "-//W3C//DTD SVG 20010904//EN"
 "http://www.w3.org/TR/2001/REC-SVG-20010904/DTD/svg10.dtd">
<svg version="1.0" xmlns="http://www.w3.org/2000/svg"
 width="310.000000pt" height="310.000000pt" viewBox="0 0 310.000000 310.000000"
 preserveAspectRatio="xMidYMid meet">
<metadata>
Created by potrace 1.11, written by Peter Selinger 2001-2013
</metadata>
<g transform="translate(0.000000,310.000000) scale(0.100000,-0.100000)"
fill="#000000" stroke="none">
<path d="M100 1550 l0 -1550 1450 0 1450 0 0 1550 0 1550 -1450 0 -1450 0 0
-1550z m1040 893 c0 -12 -19 -27 -52 -43 -29 -14 -54 -30 -56 -37 -2 -6 17
-21 42 -32 70 -31 77 -55 35 -138 -34 -69 -63 -90 -76 -57 -4 10 2 33 15 55
25 43 28 69 10 87 -19 19 -24 15 -58 -37 -50 -80 -174 -181 -220 -181 -38 0
-25 42 23 72 76 50 147 124 147 155 0 27 -46 12 -87 -29 -36 -35 -44 -39 -58
-28 -23 19 -19 27 36 91 46 53 52 57 76 48 26 -10 48 0 66 29 31 49 157 84
157 45z m664 -153 l-2 -144 -53 -47 -54 -47 -7 -218 c-10 -325 -17 -374 -53
-374 -35 0 -50 24 -31 52 16 24 36 275 36 456 0 95 12 126 69 178 l39 34 4
118 c4 124 10 145 36 140 15 -3 17 -21 16 -148z m-100 114 c8 -20 8 -162 0
-191 -6 -22 -40 -41 -52 -29 -9 10 -2 198 9 218 12 22 35 23 43 2z m537 -7
c41 -22 44 -27 52 -78 4 -30 6 -97 5 -149 -2 -75 -6 -95 -18 -97 -24 -5 -42
12 -49 47 -7 34 -15 42 -66 56 -43 13 -75 66 -75 124 0 30 -6 52 -15 60 -25
20 -45 -5 -45 -57 0 -24 -7 -57 -15 -73 -18 -34 -61 -70 -86 -70 -17 0 -21 -7
-33 -62 -7 -30 -13 -33 -35 -19 -11 7 -14 35 -12 128 2 150 7 178 34 191 40
19 51 20 183 21 119 1 135 -1 175 -22z m-995 -22 c6 -23 11 -25 60 -25 48 0
56 3 66 25 13 28 23 30 61 13 27 -13 37 -50 18 -63 -5 -3 -12 -31 -16 -63 -12
-110 -27 -135 -92 -147 -28 -5 -32 -9 -23 -20 24 -29 4 -44 -62 -47 -48 -2
-63 -7 -63 -18 0 -11 16 -16 65 -20 57 -4 65 -8 65 -25 0 -18 -8 -20 -68 -23
-89 -4 -86 -25 4 -32 48 -4 64 -9 64 -20 0 -17 -38 -27 -105 -29 -39 -1 -48
-5 -63 -30 l-17 -29 58 -40 c56 -38 58 -39 89 -24 18 9 42 12 57 8 29 -7 63
-54 73 -99 3 -15 14 -32 24 -38 15 -8 19 -21 19 -65 0 -54 0 -55 -27 -52 -24
3 -31 11 -48 63 -41 122 -55 140 -92 128 -15 -5 -17 -35 -4 -49 8 -8 14 -79
12 -140 -1 -12 -8 -24 -16 -28 -26 -10 -45 22 -45 77 0 62 -8 97 -23 97 -11 0
-113 -66 -211 -138 -44 -32 -62 -40 -72 -31 -7 6 -10 17 -7 25 6 16 118 102
206 158 54 35 66 56 31 56 -9 0 -48 -19 -87 -43 -131 -78 -165 -93 -179 -79
-21 21 2 43 100 96 51 27 92 55 92 63 0 17 0 17 -99 -17 -107 -36 -192 -48
-208 -28 -21 24 1 38 90 54 91 17 102 27 67 59 -29 26 -27 108 5 180 33 75 57
85 210 84 64 -1 119 1 122 5 3 3 -8 11 -25 17 -51 18 -62 45 -62 162 0 57 3
107 7 110 15 16 43 6 49 -18z m844 -260 c6 -8 11 -34 10 -57 -5 -82 1 -85 66
-32 46 38 74 40 74 5 0 -19 -100 -91 -127 -91 -23 0 -14 -29 12 -36 43 -11 91
-76 115 -156 12 -40 31 -97 41 -126 30 -86 24 -142 -16 -142 -33 0 -43 18 -50
90 -10 103 -34 192 -64 235 -50 74 -56 61 -59 -144 -2 -171 -4 -185 -22 -198
-11 -8 -18 -19 -14 -24 17 -28 44 -157 44 -210 0 -34 -10 -109 -22 -166 -22
-104 -22 -106 -6 -326 9 -122 14 -225 12 -229 -11 -17 -45 -7 -53 15 -25 69
-33 467 -11 567 23 100 19 202 -9 286 -25 75 -23 104 6 104 17 0 18 14 18 177
0 187 -6 209 -42 156 -27 -38 -48 -111 -63 -213 -7 -47 -16 -96 -21 -110 -7
-19 -4 -36 12 -70 12 -24 28 -80 37 -123 15 -78 15 -80 -13 -195 -26 -109 -28
-125 -22 -261 3 -80 11 -184 18 -230 9 -69 9 -85 -3 -97 -11 -12 -17 -12 -31
-2 -14 11 -20 50 -34 231 l-17 217 22 108 c28 135 28 212 1 288 -23 64 -23 63
-15 172 5 62 20 136 52 252 11 40 64 110 90 120 36 14 29 32 -20 58 -58 31
-86 58 -86 82 0 29 31 25 75 -10 21 -17 43 -29 49 -27 6 2 12 26 14 53 4 66
25 91 52 59z m-300 -100 c10 -12 12 -60 6 -218 -10 -258 -14 -291 -42 -295
-29 -4 -31 8 -23 123 4 55 7 166 8 246 1 80 4 149 8 152 11 12 30 8 43 -8z
m-740 -555 c15 -29 1 -176 -19 -198 -9 -9 -30 -24 -46 -32 l-30 -16 -3 -329
c-1 -189 -6 -333 -12 -339 -6 -6 -15 -4 -25 4 -12 10 -15 43 -15 202 l0 189
-36 15 c-44 18 -56 30 -78 72 -14 27 -16 59 -14 194 3 161 3 163 26 166 12 2
24 -3 27 -10 3 -7 6 -83 8 -168 2 -85 7 -163 11 -172 5 -10 19 -18 33 -18 l25
0 -3 215 c-4 220 0 245 35 232 13 -5 16 -23 16 -91 0 -86 9 -108 35 -86 11 9
15 33 15 82 0 94 24 137 50 88z m155 -1 c10 -30 -21 -104 -55 -133 -29 -24
-29 -25 -14 -55 l15 -31 99 0 c95 0 99 1 118 27 17 23 22 25 36 14 12 -10 16
-32 16 -97 0 -72 -3 -86 -23 -107 -13 -15 -41 -29 -67 -34 -35 -7 -46 -13 -48
-30 -2 -15 4 -23 20 -28 58 -18 75 -73 42 -137 -37 -72 -10 -152 87 -251 33
-34 58 -66 56 -72 -2 -5 -14 -11 -28 -13 -32 -4 -105 65 -148 140 -43 77 -51
147 -23 208 24 52 15 80 -24 80 -38 0 -73 -28 -99 -80 -19 -37 -25 -72 -33
-174 -9 -131 -19 -159 -47 -136 -30 25 -15 240 23 333 9 21 35 55 58 75 60 52
61 74 5 88 -72 17 -84 41 -79 156 3 53 1 104 -5 113 -7 13 -2 24 22 49 17 18
31 35 31 39 0 4 7 23 14 42 17 39 41 46 51 14z m147 -14 c4 -16 21 -46 38 -65
36 -42 39 -70 9 -70 -46 0 -119 112 -102 156 10 26 46 12 55 -21z m859 -17
c20 -37 24 -61 27 -176 4 -119 2 -140 -18 -193 -20 -54 -22 -72 -18 -192 3
-72 11 -145 17 -161 15 -36 27 -206 15 -206 -42 1 -76 129 -93 354 -6 87 -4
114 21 235 31 149 31 192 -4 294 -22 63 -19 87 11 87 12 0 27 -15 42 -42z
m-483 -135 l3 -143 27 -6 c48 -10 52 -13 52 -33 0 -14 -9 -23 -27 -27 -16 -3
-34 -7 -40 -10 -10 -2 -13 -35 -13 -119 0 -85 3 -115 13 -116 81 -4 114 -21
97 -49 -7 -12 -35 -16 -120 -18 -132 -4 -160 1 -160 28 0 23 42 44 69 35 36
-11 42 7 39 126 l-3 114 -45 5 c-37 4 -46 9 -48 27 -3 17 3 24 22 28 14 3 37
7 51 10 l25 5 0 129 c0 146 4 163 34 159 20 -3 21 -9 24 -145z"/>
<path d="M1928 2349 c-24 -13 -27 -139 -4 -139 27 0 56 55 56 104 0 49 -14 58
-52 35z"/>
<path d="M2142 2310 c5 -54 29 -90 60 -90 15 0 18 8 18 54 0 61 -16 86 -57 86
-25 0 -25 -2 -21 -50z"/>
<path d="M1257 2293 c-12 -11 -8 -98 5 -111 7 -7 29 -12 50 -12 42 0 58 19 58
69 0 53 -8 61 -59 61 -26 0 -51 -3 -54 -7z"/>
<path d="M1033 2044 c-7 -3 -13 -12 -13 -20 0 -12 12 -14 53 -12 38 2 52 7 52
18 0 11 -12 16 -40 17 -22 1 -46 0 -52 -3z"/>
<path d="M993 1948 c2 -9 24 -13 62 -13 38 0 60 4 63 13 3 9 -14 12 -63 12
-49 0 -66 -3 -62 -12z"/>
<path d="M1000 1866 c0 -27 69 -36 89 -13 16 20 4 27 -46 27 -30 0 -43 -4 -43
-14z"/>
<path d="M1156 1175 c-11 -12 -13 -22 -5 -44 8 -24 17 -29 53 -34 24 -4 67 -4
95 0 48 5 51 7 57 40 9 47 -3 53 -103 53 -60 0 -86 -4 -97 -15z"/>
</g>
</svg>
